<svg width="65" height="64" viewBox="0 0 65 64" fill="none" xmlns="http://www.w3.org/2000/svg">
<path d="M49.6684 41.4609C49.1482 41.4496 48.6511 41.2433 48.2758 40.8828C47.9068 40.5133 47.6995 40.0124 47.6995 39.4902C47.6995 38.968 47.9068 38.4671 48.2758 38.0976L54.6084 31.8438L48.4335 25.5901C48.0854 25.2165 47.8958 24.7224 47.9049 24.2119C47.9139 23.7013 48.1207 23.2142 48.4818 22.8531C48.8428 22.4921 49.3299 22.2853 49.8405 22.2762C50.351 22.2672 50.8451 22.4568 51.2187 22.8049L58.76 30.3724C59.129 30.7419 59.3363 31.2428 59.3363 31.765C59.3363 32.2873 59.129 32.7881 58.76 33.1577L51.0348 40.8828C50.669 41.2416 50.1807 41.4482 49.6684 41.4609Z" fill="#55FF00"/>
<path d="M15.1411 41.4609C14.6186 41.4604 14.1177 41.2525 13.7485 40.8828L6.2072 33.3153C5.83815 32.9458 5.63086 32.4449 5.63086 31.9227C5.63086 31.4004 5.83815 30.8995 6.2072 30.53L13.9061 22.8049C14.2755 22.432 14.7778 22.2212 15.3026 22.2187C15.8274 22.2162 16.3317 22.4224 16.7045 22.7917C17.0774 23.1611 17.2882 23.6634 17.2907 24.1882C17.2931 24.713 17.087 25.2173 16.7177 25.5901L10.3588 31.8438L16.5337 38.0187C16.9028 38.3882 17.1101 38.8891 17.1101 39.4114C17.1101 39.9336 16.9028 40.4345 16.5337 40.804C16.1709 41.1934 15.6723 41.4286 15.1411 41.4609Z" fill="#55FF00"/>
<path d="M32.4833 41.461C30.5812 41.461 28.7218 40.8969 27.1403 39.8402C25.5588 38.7834 24.3262 37.2815 23.5983 35.5242C22.8704 33.7669 22.6799 31.8332 23.051 29.9677C23.4221 28.1022 24.338 26.3886 25.683 25.0436C27.028 23.6986 28.7416 22.7827 30.6071 22.4116C32.4726 22.0405 34.4063 22.231 36.1636 22.9589C37.9209 23.6868 39.4228 24.9194 40.4796 26.5009C41.5363 28.0824 42.1004 29.9418 42.1004 31.8439C42.1004 34.3945 41.0871 36.8406 39.2836 38.6442C37.48 40.4477 35.0339 41.461 32.4833 41.461ZM32.4833 26.1682C31.3607 26.1682 30.2634 26.5011 29.3301 27.1248C28.3967 27.7484 27.6692 28.6348 27.2397 29.6719C26.8101 30.709 26.6977 31.8502 26.9167 32.9511C27.1357 34.0521 27.6762 35.0634 28.47 35.8572C29.2638 36.6509 30.2751 37.1915 31.376 37.4105C32.477 37.6295 33.6182 37.5171 34.6553 37.0875C35.6924 36.6579 36.5788 35.9305 37.2024 34.9971C37.8261 34.0637 38.1589 32.9664 38.1589 31.8439C38.1589 30.3386 37.561 28.895 36.4966 27.8306C35.4322 26.7662 33.9886 26.1682 32.4833 26.1682Z" fill="#55FF00"/>
</svg>
