<svg width="47" height="47" viewBox="0 0 47 47" fill="none" xmlns="http://www.w3.org/2000/svg">
<path d="M23.5019 23.8134C23.2468 23.8179 22.9956 23.75 22.7774 23.6176L6.6407 14.4134C6.41313 14.2866 6.22283 14.1023 6.0888 13.879C5.95478 13.6556 5.88173 13.4009 5.87695 13.1405C5.88019 12.8794 5.95029 12.6235 6.08057 12.3972C6.21085 12.171 6.39696 11.9819 6.62112 11.848L22.7578 2.64381C22.9787 2.5185 23.2284 2.45264 23.4824 2.45264C23.7364 2.45264 23.986 2.5185 24.2069 2.64381L40.3436 11.848C40.5678 11.9819 40.7539 12.171 40.8842 12.3972C41.0144 12.6235 41.0845 12.8794 41.0878 13.1405C41.085 13.399 41.0149 13.6524 40.8844 13.8756C40.7539 14.0988 40.5675 14.2841 40.3436 14.4134L24.2069 23.6176C23.9944 23.7464 23.7505 23.8142 23.5019 23.8134ZM10.342 13.1405L23.5019 20.6605L36.6619 13.1405L23.5019 5.60089L10.342 13.1405Z" fill="#55FF00"/>
<path d="M23.5 44.5523C23.2448 44.5568 22.9936 44.4888 22.7754 44.3565L6.63874 35.2502C6.39633 35.1106 6.1969 34.9071 6.06222 34.6619C5.92754 34.4167 5.86277 34.1393 5.87499 33.8598V13.1406C5.87499 12.7511 6.02974 12.3775 6.30518 12.1021C6.58062 11.8266 6.95421 11.6719 7.34374 11.6719C7.73328 11.6719 8.10686 11.8266 8.38231 12.1021C8.65775 12.3775 8.81249 12.7511 8.81249 13.1406V33.0177L23.5 41.3994L38.1679 33.0177V13.1406C38.1679 12.7511 38.3226 12.3775 38.5981 12.1021C38.8735 11.8266 39.2471 11.6719 39.6367 11.6719C40.0262 11.6719 40.3998 11.8266 40.6752 12.1021C40.9507 12.3775 41.1054 12.7511 41.1054 13.1406V33.8598C41.1022 34.1209 41.0321 34.3768 40.9018 34.603C40.7715 34.8293 40.5854 35.0184 40.3612 35.1523L24.2246 44.3565C24.0064 44.4888 23.7552 44.5568 23.5 44.5523Z" fill="#55FF00"/>
<path d="M23.5002 44.5522C23.1123 44.5472 22.7416 44.3908 22.4673 44.1164C22.1929 43.8421 22.0365 43.4715 22.0315 43.0835V25.1647L8.67565 34.506C8.35363 34.7293 7.95608 34.8156 7.57046 34.7458C7.18484 34.676 6.84273 34.4559 6.6194 34.1339C6.39606 33.8119 6.3098 33.4143 6.37958 33.0287C6.44936 32.6431 6.66946 32.301 6.99148 32.0777L22.6581 21.1502C22.8776 20.9965 23.135 20.9059 23.4023 20.888C23.6696 20.8702 23.9367 20.9258 24.1747 21.0488C24.4127 21.1718 24.6125 21.3576 24.7525 21.586C24.8925 21.8145 24.9674 22.0768 24.969 22.3447V43.0835C24.9639 43.4715 24.8075 43.8421 24.5332 44.1164C24.2588 44.3908 23.8882 44.5472 23.5002 44.5522Z" fill="#55FF00"/>
<path d="M39.1666 34.7606C38.8664 34.7638 38.5726 34.6749 38.3245 34.506L22.6578 23.5589C22.364 23.3363 22.1647 23.0113 22.0994 22.6486C22.0341 22.2858 22.1076 21.9117 22.3053 21.6006C22.5251 21.303 22.8503 21.1007 23.2144 21.0351C23.5785 20.9696 23.9539 21.0458 24.2636 21.2481L39.9303 32.1756C40.0892 32.2869 40.2244 32.4286 40.3282 32.5924C40.432 32.7563 40.5023 32.9391 40.5351 33.1303C40.5678 33.3215 40.5624 33.5172 40.5191 33.7063C40.4758 33.8954 40.3955 34.074 40.2828 34.2319C40.1491 34.3989 39.9791 34.5334 39.7857 34.625C39.5923 34.7166 39.3805 34.763 39.1666 34.7606Z" fill="#55FF00"/>
</svg>
