<svg width="40" height="41" viewBox="0 0 40 41" fill="none" xmlns="http://www.w3.org/2000/svg">
<g id="Instagram">
<g id="Instagram_2">
<rect id="Rectangle" class="socials-fill" y="0.12793" width="40" height="40" rx="20" fill="#7E00CB"/>
<path id="Vector" d="M15.8345 20.1279C15.8345 17.8268 17.6994 15.9609 20.0005 15.9609C22.3016 15.9609 24.1675 17.8268 24.1675 20.1279C24.1675 22.429 22.3016 24.2949 20.0005 24.2949C17.6994 24.2949 15.8345 22.429 15.8345 20.1279ZM13.5819 20.1279C13.5819 23.6729 16.4555 26.5465 20.0005 26.5465C23.5455 26.5465 26.4191 23.6729 26.4191 20.1279C26.4191 16.5829 23.5455 13.7093 20.0005 13.7093C16.4555 13.7093 13.5819 16.5829 13.5819 20.1279ZM25.1732 13.4548C25.1731 13.7515 25.2609 14.0415 25.4257 14.2883C25.5904 14.535 25.8246 14.7274 26.0986 14.841C26.3727 14.9547 26.6742 14.9845 26.9652 14.9267C27.2562 14.869 27.5236 14.7262 27.7334 14.5165C27.9433 14.3068 28.0863 14.0396 28.1442 13.7487C28.2022 13.4577 28.1727 13.1561 28.0592 12.882C27.9458 12.6078 27.7537 12.3735 27.507 12.2086C27.2604 12.0436 26.9705 11.9555 26.6738 11.9554H26.6732C26.2755 11.9556 25.8942 12.1136 25.6129 12.3948C25.3317 12.6759 25.1735 13.0572 25.1732 13.4548ZM14.9505 30.3026C13.7318 30.2471 13.0694 30.0441 12.6292 29.8726C12.0456 29.6454 11.6292 29.3748 11.1914 28.9376C10.7536 28.5004 10.4826 28.0844 10.2564 27.5008C10.0848 27.0608 9.88179 26.3982 9.82639 25.1795C9.76579 23.8619 9.75369 23.4661 9.75369 20.128C9.75369 16.7899 9.76679 16.3952 9.82639 15.0765C9.88189 13.8578 10.0864 13.1965 10.2564 12.7552C10.4836 12.1716 10.7542 11.7552 11.1914 11.3174C11.6286 10.8796 12.0446 10.6086 12.6292 10.3824C13.0692 10.2108 13.7318 10.0078 14.9505 9.95243C16.2681 9.89183 16.6639 9.87973 20.0005 9.87973C23.3371 9.87973 23.7333 9.89283 25.052 9.95243C26.2707 10.0079 26.932 10.2124 27.3733 10.3824C27.9569 10.6086 28.3733 10.8802 28.8111 11.3174C29.2489 11.7546 29.5189 12.1716 29.7461 12.7552C29.9177 13.1952 30.1207 13.8578 30.1761 15.0765C30.2367 16.3952 30.2488 16.7899 30.2488 20.128C30.2488 23.4661 30.2367 23.8608 30.1761 25.1795C30.1206 26.3982 29.9166 27.0606 29.7461 27.5008C29.5189 28.0844 29.2483 28.5008 28.8111 28.9376C28.3739 29.3744 27.9569 29.6454 27.3733 29.8726C26.9333 30.0442 26.2707 30.2472 25.052 30.3026C23.7344 30.3632 23.3386 30.3753 20.0005 30.3753C16.6624 30.3753 16.2677 30.3632 14.9505 30.3026ZM14.847 7.70363C13.5163 7.76423 12.607 7.97523 11.8129 8.28423C10.9905 8.60333 10.2943 9.03143 9.59859 9.72603C8.90289 10.4206 8.47589 11.1179 8.15679 11.9403C7.84779 12.7349 7.63679 13.6437 7.57619 14.9744C7.51459 16.3072 7.50049 16.7333 7.50049 20.1279C7.50049 23.5225 7.51459 23.9486 7.57619 25.2814C7.63679 26.6122 7.84779 27.5209 8.15679 28.3155C8.47589 29.1374 8.90299 29.8355 9.59859 30.5298C10.2942 31.2241 10.9905 31.6516 11.8129 31.9716C12.6085 32.2806 13.5163 32.4916 14.847 32.5522C16.1805 32.6128 16.6059 32.6279 20.0005 32.6279C23.3951 32.6279 23.8212 32.6138 25.154 32.5522C26.4848 32.4916 27.3935 32.2806 28.1881 31.9716C29.01 31.6516 29.7067 31.2244 30.4024 30.5298C31.0981 29.8352 31.5242 29.1374 31.8442 28.3155C32.1532 27.5209 32.3652 26.6121 32.4248 25.2814C32.4854 23.9476 32.4995 23.5225 32.4995 20.1279C32.4995 16.7333 32.4854 16.3072 32.4248 14.9744C32.3642 13.6436 32.1532 12.7344 31.8442 11.9403C31.5242 11.1184 31.097 10.4217 30.4024 9.72603C29.7078 9.03033 29.01 8.60333 28.1891 8.28423C27.3935 7.97523 26.4847 7.76323 25.155 7.70363C23.8222 7.64303 23.3961 7.62793 20.0015 7.62793C16.6069 7.62793 16.1805 7.64203 14.847 7.70363Z" fill="white"/>
</g>
</g>
</svg>
