<svg width="98" height="113" viewBox="0 0 98 113" fill="none" xmlns="http://www.w3.org/2000/svg">
<path d="M14.2773 41.4082V57.8479H24.4992V54.2179H18.382V41.4082H14.2773Z" fill="#55FF00"/>
<path d="M40.1167 51.1884V48.01H34.4695V44.7956H40.753V41.4082H30.4492V57.8479H40.9627V54.4461H34.4695V51.1884H40.1167Z" fill="#55FF00"/>
<path d="M57.7334 55.0659L58.6806 57.8479H63.1323L56.5114 41.4082H52.3537L45.875 57.8479H50.1917L51.1438 55.0659H57.7334ZM54.4265 45.3746L56.8199 52.0629H52.0548L54.4265 45.3746Z" fill="#55FF00"/>
<path d="M75.2617 41.4082H68.6504V57.8479H75.2617C80.2822 57.8479 83.7867 54.4605 83.7867 49.6125C83.7891 44.7836 80.2822 41.4082 75.2617 41.4082ZM75.0399 54.2179H72.7165V45.0383H75.0399C77.7852 45.0383 79.629 46.8761 79.629 49.6125C79.629 52.368 77.7852 54.2179 75.0399 54.2179Z" fill="#55FF00"/>
<path d="M22.5204 80.7619H27.0203L23.9978 75.2411L24.0822 75.1883C25.6055 74.2802 26.478 72.733 26.478 70.9408C26.478 67.8009 24.1641 65.6099 20.8525 65.6099H14.2773V80.7595H18.3145V76.0604H20.0209L22.5204 80.7619ZM18.3145 69.163H20.3584C21.5587 69.163 22.3324 69.8549 22.3324 70.9288C22.3324 71.9907 21.5394 72.7066 20.3584 72.7066H18.3145V69.163Z" fill="#55FF00"/>
<path d="M38.5727 65.2231C33.7137 65.2231 30.1875 68.5721 30.1875 73.1872C30.1875 77.8022 33.7137 81.1512 38.5727 81.1512C43.4149 81.1512 46.9314 77.8022 46.9314 73.1872C46.9314 68.5721 43.4173 65.2231 38.5727 65.2231ZM38.5727 77.4202C36.1553 77.4202 34.4006 75.64 34.4006 73.1872C34.4006 70.7319 36.1553 68.9541 38.5727 68.9541C40.9757 68.9541 42.7207 70.7343 42.7207 73.1872C42.7207 75.64 40.9757 77.4202 38.5727 77.4202Z" fill="#55FF00"/>
<path d="M62.1377 74.5757C61.6726 76.2886 60.2795 77.3937 58.573 77.3937C56.3218 77.3937 54.6853 75.628 54.6853 73.1967C54.6853 70.7463 56.3194 68.9661 58.573 68.9661C60.2047 68.9661 61.5617 69.9583 62.1281 71.5631H66.2327C65.5675 67.7649 62.4993 65.2207 58.5634 65.2207C53.9526 65.2207 50.4746 68.6489 50.4746 73.1967C50.4746 77.7301 53.9526 81.1463 58.5634 81.1463C62.5692 81.1463 65.6543 78.5109 66.2785 74.5733H62.1377V74.5757Z" fill="#55FF00"/>
<path d="M84.2325 80.7619L78.9107 72.9468L78.9493 72.8892L83.777 65.6099H79.1059L74.8711 72.3414V65.6099H70.834V80.7619H74.8711V73.73L79.4506 80.7619H84.2325Z" fill="#55FF00"/>
<path d="M73.3205 13.3528L72.0599 12.291L70.4234 10.8735L59.4158 23.5102L62.2093 25.9271L70.7415 16.1324L72.0551 17.2063L72.9975 18.0471L93.7786 36.6635V85.3916L48.9988 108.813L4.219 85.3916V36.5794L25.3905 16.5937L22.8333 13.9006L1.09051 34.4268L0.5 34.9746V87.6355L48.9988 113L96.5046 88.1568L97.5 87.6355V35.0106L73.3205 13.3528Z" fill="#55FF00"/>
<path d="M24.9536 27.3443L49.6971 5.08111L62.0303 15.8247L64.4766 13.0307L51.5795 1.79701L49.6971 0L22.459 24.5935L24.9536 27.3443Z" fill="#55FF00"/>
</svg>
