<svg width="14" height="14" viewBox="0 0 14 14" fill="none" xmlns="http://www.w3.org/2000/svg">
<circle cx="6.7476" cy="6.79155" r="6.6956" fill="#03DFC5"/>
<path fill-rule="evenodd" clip-rule="evenodd" d="M3.70674 7.44112C3.71929 7.48129 3.74214 7.537 3.75751 7.56493C3.77301 7.59311 4.44297 8.33892 5.26255 9.24039L6.73965 10.8651L8.28675 9.29077C9.67109 7.88209 9.83744 7.70921 9.86795 7.64737C9.98319 7.41387 9.95286 7.1678 9.78604 6.98295C9.62395 6.80334 9.39216 6.7606 9.16559 6.86856C9.11335 6.89345 8.98281 7.02145 8.2128 7.80287L7.32054 8.70835L7.37803 5.59873C7.41147 3.78976 7.43198 2.46336 7.42706 2.42753C7.3748 2.04722 7.00465 1.8335 6.6725 1.99185C6.58513 2.0335 6.4733 2.14474 6.43125 2.23184C6.36534 2.36834 6.37391 2.13305 6.31056 5.54848C6.27858 7.27272 6.24889 8.68338 6.24457 8.6833C6.24026 8.68322 5.85171 8.2618 5.38112 7.74683C4.6953 6.9963 4.51464 6.80453 4.4707 6.78041C4.22203 6.64396 3.92426 6.72369 3.77159 6.96759C3.71134 7.06382 3.6972 7.11213 3.69028 7.24534C3.68476 7.35162 3.68697 7.37789 3.70674 7.44112Z" fill="#1C1C1C"/>
</svg>
