<svg width="38" height="38" viewBox="0 0 38 38" fill="none" xmlns="http://www.w3.org/2000/svg">
<path fill-rule="evenodd" clip-rule="evenodd" d="M4.22392 8.09568C4.61859 7.54047 5.14004 7.08745 5.74494 6.77425C6.34985 6.46106 7.02075 6.29673 7.70192 6.29492H29.9019C31.3449 6.29492 32.6045 7.01954 33.3799 8.09568C33.9087 8.83263 34.2186 9.74072 34.2186 10.7151V26.5426C34.2186 28.9308 32.3378 30.9628 29.9019 30.9628H7.70192C5.26609 30.9628 3.38525 28.9308 3.38525 26.5426V10.7151C3.38525 9.74072 3.69359 8.83263 4.22392 8.09413V8.09568ZM7.90696 9.37841L17.6611 20.1166C17.8056 20.2756 17.9817 20.4026 18.1782 20.4896C18.3746 20.5765 18.5871 20.6214 18.8019 20.6214C19.0168 20.6214 19.2292 20.5765 19.4257 20.4896C19.6221 20.4026 19.7983 20.2756 19.9428 20.1166L29.6969 9.37841H7.90696ZM31.1353 12.3817L22.2244 22.1903C21.7909 22.6672 21.2626 23.0483 20.6732 23.3091C20.0838 23.5698 19.4464 23.7045 18.8019 23.7045C18.1574 23.7045 17.5201 23.5698 16.9307 23.3091C16.3413 23.0483 15.8129 22.6672 15.3794 22.1903L6.46859 12.3817V26.5426C6.46859 27.3351 7.07292 27.8793 7.70192 27.8793H29.9019C30.5309 27.8793 31.1353 27.3351 31.1353 26.5426V12.3817Z" fill="#55FF00"/>
</svg>
