<svg width="45" height="37" viewBox="0 0 45 37" fill="none" xmlns="http://www.w3.org/2000/svg">
<path d="M22.5 33.339C20.1392 33.3442 17.8008 32.8816 15.6198 31.978C13.4388 31.0743 11.4584 29.7474 9.79314 28.074L1.05189 19.3496C0.893727 19.1927 0.768187 19.0061 0.682515 18.8005C0.596843 18.5948 0.552734 18.3743 0.552734 18.1515C0.552734 17.9287 0.596843 17.7082 0.682515 17.5025C0.768187 17.2969 0.893727 17.1102 1.05189 16.9534L9.79314 8.22899C13.1634 4.85932 17.7341 2.96631 22.5 2.96631C27.2659 2.96631 31.8366 4.85932 35.2069 8.22899L43.9481 16.9534C44.1063 17.1102 44.2319 17.2969 44.3175 17.5025C44.4032 17.7082 44.4473 17.9287 44.4473 18.1515C44.4473 18.3743 44.4032 18.5948 44.3175 18.8005C44.2319 19.0061 44.1063 19.1927 43.9481 19.3496L35.2069 28.074C33.5416 29.7474 31.5613 31.0743 29.3803 31.978C27.1993 32.8816 24.8608 33.3442 22.5 33.339ZM4.62939 18.1515L12.1725 25.6946C14.9148 28.4274 18.6285 29.9619 22.5 29.9619C26.3715 29.9619 30.0852 28.4274 32.8275 25.6946L40.3706 18.1515L32.8275 10.6084C30.0852 7.87553 26.3715 6.34104 22.5 6.34104C18.6285 6.34104 14.9148 7.87553 12.1725 10.6084L4.62939 18.1515Z" fill="#55FF00"/>
<path d="M22.5 24.9014C21.165 24.9014 19.8599 24.5055 18.7499 23.7638C17.6399 23.0221 16.7747 21.9679 16.2638 20.7345C15.7529 19.5011 15.6193 18.1439 15.8797 16.8345C16.1402 15.5251 16.783 14.3224 17.727 13.3784C18.671 12.4344 19.8738 11.7915 21.1831 11.5311C22.4925 11.2706 23.8497 11.4043 25.0831 11.9152C26.3165 12.4261 27.3707 13.2912 28.1124 14.4013C28.8541 15.5113 29.25 16.8163 29.25 18.1514C29.25 19.9416 28.5388 21.6585 27.273 22.9243C26.0071 24.1902 24.2902 24.9014 22.5 24.9014ZM22.5 14.7764C21.8325 14.7764 21.18 14.9743 20.625 15.3452C20.0699 15.716 19.6374 16.2431 19.3819 16.8598C19.1265 17.4765 19.0596 18.1551 19.1899 18.8098C19.3201 19.4645 19.6415 20.0659 20.1135 20.5379C20.5855 21.0099 21.1869 21.3313 21.8416 21.4615C22.4963 21.5917 23.1749 21.5249 23.7916 21.2695C24.4083 21.014 24.9354 20.5814 25.3062 20.0264C25.6771 19.4714 25.875 18.8189 25.875 18.1514C25.875 17.2563 25.5194 16.3978 24.8865 15.7649C24.2536 15.132 23.3951 14.7764 22.5 14.7764Z" fill="#55FF00"/>
<path d="M36 1L7 36" stroke="#55FF00" stroke-width="2"/>
</svg>
