<svg width="39" height="40" viewBox="0 0 39 40" fill="none" xmlns="http://www.w3.org/2000/svg">
<path d="M10.3594 12.2712C10.3594 11.624 9.83472 11.0993 9.18751 11.0993C8.54031 11.0993 8.01564 11.624 8.01564 12.2712C8.01564 18.6138 13.1574 23.7556 19.5 23.7556C25.8427 23.7556 30.9844 18.6138 30.9844 12.2712C30.9844 11.624 30.4597 11.0993 29.8125 11.0993C29.1653 11.0993 28.6406 11.624 28.6406 12.2712C28.6406 17.3194 24.5482 21.4118 19.5 21.4118C14.4518 21.4118 10.3594 17.3194 10.3594 12.2712Z" fill="#55FF00"/>
<path fill-rule="evenodd" clip-rule="evenodd" d="M0.75 10.3962V29.1462C0.75 34.3239 4.94733 38.5212 10.125 38.5212H28.875C34.0527 38.5212 38.25 34.3239 38.25 29.1462V10.3962C38.25 5.21857 34.0527 1.02124 28.875 1.02124H10.125C4.94733 1.02124 0.75 5.21857 0.75 10.3962ZM28.875 3.36499H10.125C6.84782 3.36499 4.09429 5.60704 3.31462 8.64093C5.02345 6.83523 7.44267 5.70874 10.125 5.70874H28.875C31.5573 5.70874 33.9766 6.83524 35.6854 8.64094C34.9057 5.60704 32.1522 3.36499 28.875 3.36499ZM3.09375 29.1462V15.0837C3.09375 11.2005 6.24175 8.05249 10.125 8.05249H28.875C32.7583 8.05249 35.9062 11.2005 35.9062 15.0837V29.1462C35.9062 33.0295 32.7583 36.1775 28.875 36.1775H10.125C6.24175 36.1775 3.09375 33.0295 3.09375 29.1462Z" fill="#55FF00"/>
<path d="M10.3594 12.2712C10.3594 11.624 9.83472 11.0993 9.18751 11.0993C8.54031 11.0993 8.01564 11.624 8.01564 12.2712C8.01564 18.6138 13.1574 23.7556 19.5 23.7556C25.8427 23.7556 30.9844 18.6138 30.9844 12.2712C30.9844 11.624 30.4597 11.0993 29.8125 11.0993C29.1653 11.0993 28.6406 11.624 28.6406 12.2712C28.6406 17.3194 24.5482 21.4118 19.5 21.4118C14.4518 21.4118 10.3594 17.3194 10.3594 12.2712Z" stroke="#55FF00" stroke-linecap="round" stroke-linejoin="round"/>
<path fill-rule="evenodd" clip-rule="evenodd" d="M0.75 10.3962V29.1462C0.75 34.3239 4.94733 38.5212 10.125 38.5212H28.875C34.0527 38.5212 38.25 34.3239 38.25 29.1462V10.3962C38.25 5.21857 34.0527 1.02124 28.875 1.02124H10.125C4.94733 1.02124 0.75 5.21857 0.75 10.3962ZM28.875 3.36499H10.125C6.84782 3.36499 4.09429 5.60704 3.31462 8.64093C5.02345 6.83523 7.44267 5.70874 10.125 5.70874H28.875C31.5573 5.70874 33.9766 6.83524 35.6854 8.64094C34.9057 5.60704 32.1522 3.36499 28.875 3.36499ZM3.09375 29.1462V15.0837C3.09375 11.2005 6.24175 8.05249 10.125 8.05249H28.875C32.7583 8.05249 35.9062 11.2005 35.9062 15.0837V29.1462C35.9062 33.0295 32.7583 36.1775 28.875 36.1775H10.125C6.24175 36.1775 3.09375 33.0295 3.09375 29.1462Z" stroke="#55FF00" stroke-linecap="round" stroke-linejoin="round"/>
</svg>
