<svg width="56" height="57" viewBox="0 0 56 57" fill="none" xmlns="http://www.w3.org/2000/svg">
<path d="M28.0001 52.9015C27.1561 52.9033 26.3219 52.7204 25.5561 52.3657C24.7903 52.011 24.1113 51.4931 23.5668 50.8482L21.5134 48.5149C21.1648 48.1051 20.727 47.7806 20.2336 47.5662C19.7402 47.3518 19.2042 47.2533 18.6668 47.2782L15.5401 47.5582C14.697 47.6286 13.8487 47.5147 13.054 47.2245C12.2593 46.9343 11.5372 46.4746 10.9378 45.8775C10.3385 45.2804 9.87621 44.56 9.58305 43.7664C9.28989 42.9728 9.17286 42.1249 9.24009 41.2815L9.33342 38.0849C9.37686 37.5317 9.28727 36.9762 9.07212 36.4647C8.85698 35.9532 8.52254 35.5007 8.09676 35.1449L5.76342 33.1149C5.1155 32.5695 4.59463 31.8891 4.2373 31.1213C3.87997 30.3534 3.69482 29.5168 3.69482 28.6699C3.69482 27.823 3.87997 26.9863 4.2373 26.2185C4.59463 25.4507 5.1155 24.7702 5.76342 24.2249L8.09676 22.1715C8.51301 21.8181 8.8414 21.3727 9.05602 20.8706C9.27064 20.3685 9.3656 19.8233 9.33342 19.2782L9.10009 16.0815C9.02973 15.2384 9.14361 14.3901 9.43383 13.5954C9.72405 12.8007 10.1837 12.0786 10.7808 11.4793C11.3779 10.88 12.0983 10.4177 12.8919 10.1245C13.6855 9.83134 14.5334 9.71432 15.3768 9.78155L18.5268 9.94488C19.0719 9.99587 19.6215 9.91908 20.1319 9.72062C20.6422 9.52215 21.0993 9.20747 21.4668 8.80155L23.4968 6.46821C24.0409 5.79842 24.7273 5.25825 25.5063 4.88693C26.2853 4.51561 27.1372 4.32247 28.0001 4.32155C28.8441 4.31979 29.6782 4.50268 30.4441 4.85738C31.2099 5.21209 31.8889 5.73003 32.4334 6.37488L34.4868 8.70821C34.8342 9.11937 35.2718 9.44485 35.7655 9.65934C36.2592 9.87382 36.7958 9.97154 37.3334 9.94488L40.4601 9.66488C41.3032 9.59452 42.1515 9.7084 42.9462 9.99862C43.7409 10.2888 44.463 10.7484 45.0623 11.3456C45.6617 11.9427 46.124 12.6631 46.4171 13.4567C46.7103 14.2503 46.8273 15.0982 46.7601 15.9415L46.6668 19.1382C46.6233 19.6914 46.7129 20.2469 46.9281 20.7584C47.1432 21.2699 47.4776 21.7224 47.9034 22.0782L50.2368 24.1082C50.8847 24.6536 51.4056 25.334 51.7629 26.1018C52.1202 26.8697 52.3054 27.7063 52.3054 28.5532C52.3054 29.4001 52.1202 30.2368 51.7629 31.0046C51.4056 31.7724 50.8847 32.4528 50.2368 32.9982L47.9034 35.0515C47.4872 35.405 47.1588 35.8504 46.9442 36.3525C46.7295 36.8546 46.6346 37.3998 46.6668 37.9449L46.9468 41.0715C47.0285 41.9252 46.9202 42.7863 46.6298 43.5932C46.3393 44.4 45.8738 45.1325 45.2668 45.7382C44.6672 46.3549 43.9361 46.8284 43.1281 47.1233C42.3201 47.4182 41.456 47.527 40.6001 47.4415L37.4734 47.2782C36.921 47.2423 36.3679 47.3353 35.8576 47.55C35.3474 47.7646 34.8941 48.0949 34.5334 48.5149L32.5034 50.8482C31.9601 51.4961 31.2819 52.0176 30.5162 52.3763C29.7504 52.735 28.9157 52.9222 28.0701 52.9249L28.0001 52.9015ZM18.9001 44.9449C19.7441 44.9431 20.5783 45.126 21.3441 45.4807C22.1099 45.8354 22.7889 46.3534 23.3334 46.9982L25.3868 49.3315C25.7111 49.7215 26.1179 50.0347 26.5779 50.2486C27.0379 50.4624 27.5395 50.5716 28.0468 50.5682C28.5561 50.564 29.0588 50.4516 29.5214 50.2384C29.984 50.0252 30.396 49.7161 30.7301 49.3315L32.7601 46.9982C33.3484 46.2834 34.1021 45.7227 34.9559 45.3649C35.8097 45.0071 36.7379 44.863 37.6601 44.9449L40.8101 45.1782C41.3145 45.2231 41.8226 45.1565 42.2985 44.9831C42.7743 44.8097 43.2061 44.5338 43.5634 44.1749C43.9216 43.8122 44.1967 43.3761 44.37 42.8967C44.5432 42.4173 44.6103 41.9061 44.5668 41.3982L44.3334 38.2015C44.2481 37.2801 44.3859 36.3516 44.7351 35.4947C45.0844 34.6377 45.6349 33.8775 46.3401 33.2782L48.6734 31.2249C49.0659 30.9101 49.3843 30.5128 49.6061 30.0611C49.8279 29.6095 49.9476 29.1146 49.9568 28.6115C49.9526 28.1022 49.8402 27.5995 49.627 27.1369C49.4138 26.6743 49.1046 26.2623 48.7201 25.9282L46.3868 23.8982C45.6666 23.304 45.1029 22.5425 44.7449 21.6802C44.387 20.8179 44.2457 19.8811 44.3334 18.9515L44.5668 15.8015C44.6116 15.2971 44.545 14.789 44.3716 14.3132C44.1982 13.8374 43.9223 13.4055 43.5634 13.0482C43.2007 12.6901 42.7646 12.4149 42.2853 12.2417C41.8059 12.0685 41.2946 12.0013 40.7868 12.0449L37.5901 12.2782C36.6688 12.3616 35.741 12.2229 34.8843 11.8738C34.0277 11.5246 33.2673 10.9752 32.6668 10.2715L30.6134 7.93821C30.2986 7.54572 29.9013 7.22729 29.4497 7.00551C28.998 6.78373 28.5032 6.66402 28.0001 6.65488C27.4907 6.65904 26.9881 6.77145 26.5254 6.98466C26.0628 7.19787 25.6508 7.507 25.3168 7.89155L23.2868 10.2249C22.698 10.9515 21.9373 11.5198 21.0736 11.8783C20.2099 12.2368 19.2703 12.3743 18.3401 12.2782L15.1901 12.0449C14.6858 12.0016 14.1781 12.069 13.7025 12.2423C13.227 12.4156 12.795 12.6906 12.4368 13.0482C12.0691 13.4188 11.7883 13.8664 11.6148 14.3587C11.4413 14.851 11.3793 15.3757 11.4334 15.8949L11.6668 19.0215C11.7521 19.943 11.6143 20.8715 11.265 21.7284C10.9158 22.5854 10.3653 23.3456 9.66009 23.9449L7.32676 25.9982C6.93427 26.313 6.61584 26.7103 6.39406 27.162C6.17227 27.6136 6.05257 28.1085 6.04342 28.6115C6.04759 29.1209 6.16 29.6236 6.37321 30.0862C6.58641 30.5488 6.89554 30.9608 7.28009 31.2949L9.61342 33.3249C10.3336 33.919 10.8973 34.6806 11.2552 35.5429C11.6132 36.4052 11.7545 37.342 11.6668 38.2715L11.4334 41.4215C11.3885 41.926 11.4552 42.4341 11.6286 42.9099C11.8019 43.3857 12.0779 43.8176 12.4368 44.1749C12.7995 44.533 13.2355 44.8082 13.7149 44.9814C14.1943 45.1546 14.7056 45.2218 15.2134 45.1782L18.4101 44.9449H18.9001Z" fill="#55FF00"/>
<path d="M28.0002 36.7782C25.8342 36.7782 23.757 35.9177 22.2255 34.3862C20.6939 32.8546 19.8335 30.7774 19.8335 28.6115C19.8335 26.4456 20.6939 24.3683 22.2255 22.8368C23.757 21.3052 25.8342 20.4448 28.0002 20.4448C30.1661 20.4448 32.2433 21.3052 33.7749 22.8368C35.3064 24.3683 36.1668 26.4456 36.1668 28.6115C36.1668 30.7774 35.3064 32.8546 33.7749 34.3862C32.2433 35.9177 30.1661 36.7782 28.0002 36.7782ZM28.0002 22.7782C26.4531 22.7782 24.9693 23.3927 23.8754 24.4867C22.7814 25.5807 22.1668 27.0644 22.1668 28.6115C22.1668 30.1586 22.7814 31.6423 23.8754 32.7363C24.9693 33.8302 26.4531 34.4448 28.0002 34.4448C29.5473 34.4448 31.031 33.8302 32.125 32.7363C33.2189 31.6423 33.8335 30.1586 33.8335 28.6115C33.8335 27.0644 33.2189 25.5807 32.125 24.4867C31.031 23.3927 29.5473 22.7782 28.0002 22.7782Z" fill="#55FF00"/>
</svg>
