<svg width="34" height="34" viewBox="0 0 34 34" fill="none" xmlns="http://www.w3.org/2000/svg">
<path d="M31.2399 19.5901C31.2304 19.6429 31.2238 19.6961 31.2138 19.7488L31.1625 19.4466C31.1905 19.4937 31.2138 19.5426 31.2399 19.5901ZM31.2399 19.5901C31.3948 18.7473 31.476 17.8845 31.476 17.0222C31.476 15.11 31.1017 13.2547 30.3619 11.5082C29.6483 9.82118 28.6274 8.30609 27.3256 7.00528C26.0257 5.70446 24.5097 4.68348 22.8236 3.96988C21.0776 3.2311 19.2223 2.85673 17.3101 2.85673C16.4088 2.85673 15.5061 2.9413 14.6277 3.10996C14.6277 3.10996 14.6234 3.11043 14.621 3.11091M31.2399 19.5901C31.9331 20.8334 32.3018 22.2397 32.3018 23.6703C32.3018 25.9103 31.43 28.0169 29.8455 29.5999C28.2615 31.1849 26.1564 32.0557 23.9168 32.0557C22.4663 32.0557 21.0458 31.6785 19.791 30.9687M14.621 3.11091C14.6704 3.13704 14.7203 3.16032 14.7688 3.1874L14.4709 3.14084C14.5208 3.13133 14.5711 3.12088 14.621 3.11091ZM14.621 3.11091C13.4157 2.47 12.0602 2.12793 10.6882 2.12793C8.44809 2.12793 6.34198 3.00021 4.75801 4.58466C3.17451 6.16863 2.30176 8.27473 2.30176 10.5148C2.30176 11.9406 2.66853 13.3421 3.35695 14.5807M3.35695 14.5807C3.36598 14.5294 3.37215 14.4776 3.38213 14.4263L3.43344 14.7232C3.40683 14.6767 3.38355 14.6282 3.35695 14.5807ZM3.35695 14.5807C3.21727 15.3831 3.14363 16.2032 3.14363 17.0222C3.14363 18.935 3.51801 20.7897 4.25773 22.5367C4.97038 24.2242 5.99184 25.7383 7.29218 27.0392C8.59394 28.34 10.1081 29.3624 11.7961 30.0741C13.5421 30.8143 15.3978 31.1891 17.3101 31.1891C18.1424 31.1891 18.9767 31.1131 19.791 30.9687M19.791 30.9687C19.7435 30.9421 19.6951 30.9179 19.6466 30.8898L19.9492 30.943C19.897 30.953 19.8442 30.9592 19.791 30.9687Z" stroke="#55FF00" stroke-width="3"/>
<path d="M17.5859 26.0595C12.5532 26.0595 10.3018 23.5852 10.3018 21.7309C10.3018 20.7798 11.004 20.1132 11.9717 20.1132C14.1253 20.1132 13.5676 23.2056 17.5859 23.2056C19.6431 23.2056 20.7791 22.0887 20.7791 20.9456C20.7791 20.2581 20.4399 19.496 19.0854 19.1621L14.609 18.0446C11.004 17.1405 10.3497 15.1917 10.3497 13.3597C10.3497 9.55607 13.931 8.12793 17.2942 8.12793C20.3923 8.12793 24.0444 9.84018 24.0444 12.1221C24.0444 13.0998 23.1978 13.6685 22.2305 13.6685C20.3923 13.6685 20.7306 11.1244 17.0282 11.1244C15.191 11.1244 14.1733 11.9563 14.1733 13.1469C14.1733 14.3351 15.6243 14.7147 16.8842 15.0016L20.1976 15.7371C23.8268 16.5457 24.7471 18.6646 24.7471 20.6605C24.7471 23.7515 22.3744 26.0595 17.5859 26.0595Z" fill="#55FF00"/>
</svg>
