<svg width="47" height="45" viewBox="0 0 47 45" fill="none" xmlns="http://www.w3.org/2000/svg">
<path d="M35.0581 44.2384C34.068 44.2295 33.1059 43.9166 32.3083 43.3442L24.299 37.6596C24.0563 37.4928 23.7666 37.4033 23.4697 37.4033C23.1728 37.4033 22.8832 37.4928 22.6404 37.6596L14.7403 43.3442C13.9393 43.9122 12.9746 44.2184 11.9843 44.2189C10.994 44.2195 10.029 43.9144 9.22729 43.3473C8.42559 42.7802 7.82836 41.9802 7.52109 41.0618C7.21382 40.1434 7.21227 39.1537 7.51665 38.2344L10.4847 29.0582C10.5713 28.778 10.5676 28.4786 10.4739 28.2006C10.3802 27.9225 10.2011 27.6793 9.9609 27.504L1.95163 21.8194C1.14526 21.2562 0.543594 20.4572 0.233767 19.5382C-0.076059 18.6191 -0.0779574 17.6277 0.228347 16.7075C0.534652 15.7873 1.13326 14.9861 1.93746 14.42C2.74167 13.8539 3.70972 13.5522 4.70141 13.5587H14.6093C14.9098 13.5594 15.2027 13.4669 15.4459 13.2948C15.6891 13.1226 15.8699 12.8795 15.9624 12.6006L19.105 3.40306C19.4161 2.49112 20.0135 1.69784 20.8126 1.13568C21.6117 0.57352 22.5718 0.270996 23.557 0.270996C24.5422 0.270996 25.5024 0.57352 26.3015 1.13568C27.1005 1.69784 27.698 2.49112 28.009 3.40306L31.0643 12.6006C31.1568 12.8795 31.3376 13.1226 31.5808 13.2948C31.824 13.4669 32.1169 13.5594 32.4174 13.5587H42.238C43.2297 13.5522 44.1978 13.8539 45.002 14.42C45.8062 14.9861 46.4048 15.7873 46.7111 16.7075C47.0174 17.6277 47.0155 18.6191 46.7057 19.5382C46.3959 20.4572 45.7942 21.2562 44.9878 21.8194L36.9785 27.504C36.7402 27.6759 36.562 27.9153 36.4682 28.1897C36.3745 28.464 36.3698 28.7599 36.4548 29.0369L39.5319 38.2344C39.8434 39.152 39.8462 40.1425 39.54 41.0617C39.2337 41.9809 38.6345 42.7806 37.8297 43.3442C37.0254 43.9195 36.0554 44.2325 35.0581 44.2384ZM23.4697 34.2105C24.457 34.2161 25.4179 34.5212 26.2195 35.0834L34.2288 40.768C34.4736 40.9396 34.7675 41.0319 35.069 41.0319C35.3705 41.0319 35.6643 40.9396 35.9092 40.768C36.1544 40.6022 36.3365 40.362 36.4273 40.0848C36.5181 39.8076 36.5124 39.5089 36.4111 39.2351L33.3558 30.0376C33.0444 29.1201 33.0416 28.1295 33.3478 27.2103C33.654 26.2911 34.2532 25.4914 35.0581 24.9278L43.111 19.2432C43.3545 19.0757 43.5367 18.8365 43.6309 18.5607C43.7251 18.2849 43.7265 17.9869 43.6348 17.7103C43.5485 17.4278 43.3692 17.1808 43.1246 17.0076C42.8801 16.8344 42.5838 16.7447 42.2817 16.7523H32.3301C31.3575 16.7332 30.415 16.4198 29.6331 15.8553C28.8511 15.2907 28.2683 14.5031 27.9654 13.6012L24.9101 4.40372C24.8195 4.12289 24.6394 3.87758 24.3961 3.70344C24.1527 3.5293 23.8588 3.43541 23.557 3.43541C23.2552 3.43541 22.9613 3.5293 22.718 3.70344C22.4746 3.87758 22.2946 4.12289 22.204 4.40372L19.105 13.58C18.8058 14.4858 18.2246 15.278 17.4423 15.8466C16.66 16.4152 15.7156 16.7317 14.7403 16.7523H4.70141C4.39929 16.7447 4.10303 16.8344 3.85845 17.0076C3.61387 17.1808 3.43459 17.4278 3.34834 17.7103C3.2566 17.9869 3.25795 18.2849 3.35218 18.5607C3.44642 18.8365 3.6286 19.0757 3.87211 19.2432L11.8814 24.9278C12.6862 25.4914 13.2855 26.2911 13.5917 27.2103C13.8979 28.1295 13.8951 29.1201 13.5836 30.0376L10.5283 39.2777C10.4271 39.5514 10.4214 39.8502 10.5122 40.1274C10.6029 40.4046 10.7851 40.6448 11.0303 40.8106C11.2751 40.9822 11.569 41.0744 11.8705 41.0744C12.1719 41.0744 12.4658 40.9822 12.7107 40.8106L20.7199 35.0196C21.5292 34.48 22.4896 34.1974 23.4697 34.2105Z" fill="#55FF00"/>
</svg>
