<svg width="24" height="21" viewBox="0 0 24 21" fill="none" xmlns="http://www.w3.org/2000/svg">
<path fill-rule="evenodd" clip-rule="evenodd" d="M0.334899 9.31069C0.386368 8.45066 0.948158 7.7052 1.7607 7.41873L20.2496 0.900273C20.965 0.64806 21.7604 0.793046 22.3408 1.28144C22.9211 1.76984 23.1999 2.52879 23.0736 3.27674L20.4323 18.921C20.3119 19.6346 19.8392 20.2391 19.1757 20.5281C18.5121 20.8171 17.7476 20.7514 17.143 20.3536L9.21923 15.1388C8.83447 14.8856 8.54491 14.5175 8.38775 14.0923C7.87135 14.2519 7.30542 14.2124 6.80743 13.9666L1.52489 11.3592C0.752304 10.9779 0.283431 10.1707 0.334899 9.31069ZM15.6792 6.83125L10.3967 13.3497L18.3205 18.5645L20.9617 2.92018L2.47284 9.43863L7.75539 12.046L15.6792 6.83125Z" fill="#55FF00"/>
</svg>
