<svg width="40" height="41" viewBox="0 0 40 41" fill="none" xmlns="http://www.w3.org/2000/svg">
<rect y="0.12793" class="socials-fill" width="40" height="40" rx="20" fill="#7E00CB"/>
<rect y="0.12793" class="socials-fill" width="40" height="40" rx="20" fill="#7E00CB"/>
<path d="M8.98947 19.6871C14.8056 17.0998 18.6839 15.3942 20.6244 14.5701C26.165 12.2171 27.3162 11.8084 28.0666 11.7947C28.2317 11.7919 28.6007 11.8337 28.8397 12.0317C29.0416 12.1989 29.0971 12.4248 29.1237 12.5834C29.1502 12.7419 29.1833 13.1031 29.157 13.3853C28.8568 16.6063 27.5576 24.4228 26.8967 28.0304C26.617 29.5569 26.0664 30.0688 25.5332 30.1189C24.3746 30.2277 23.4949 29.3371 22.3727 28.5861C20.6168 27.4108 19.6248 26.6792 17.9204 25.5324C15.9506 24.2071 17.2275 23.4787 18.3501 22.2882C18.6439 21.9767 23.7486 17.2359 23.8474 16.8058C23.8598 16.7521 23.8712 16.5516 23.7546 16.4457C23.6379 16.3398 23.4657 16.376 23.3415 16.4048C23.1654 16.4456 20.3603 18.3387 14.9261 22.084C14.1299 22.6422 13.4087 22.9142 12.7625 22.9C12.0502 22.8843 10.6799 22.4887 9.66122 22.1507C8.4118 21.736 7.41878 21.5167 7.50525 20.8125C7.55029 20.4457 8.04503 20.0705 8.98947 19.6871Z" fill="white"/>
</svg>
