<svg width="45" height="32" viewBox="0 0 45 32" fill="none" xmlns="http://www.w3.org/2000/svg">
<path d="M22.5 31.339C20.1392 31.3442 17.8008 30.8816 15.6198 29.978C13.4388 29.0743 11.4584 27.7474 9.79314 26.074L1.05189 17.3496C0.893727 17.1927 0.768187 17.0061 0.682515 16.8005C0.596843 16.5948 0.552734 16.3743 0.552734 16.1515C0.552734 15.9287 0.596843 15.7082 0.682515 15.5025C0.768187 15.2969 0.893727 15.1102 1.05189 14.9534L9.79314 6.22899C13.1634 2.85932 17.7341 0.966309 22.5 0.966309C27.2659 0.966309 31.8366 2.85932 35.2069 6.22899L43.9481 14.9534C44.1063 15.1102 44.2319 15.2969 44.3175 15.5025C44.4032 15.7082 44.4473 15.9287 44.4473 16.1515C44.4473 16.3743 44.4032 16.5948 44.3175 16.8005C44.2319 17.0061 44.1063 17.1927 43.9481 17.3496L35.2069 26.074C33.5416 27.7474 31.5613 29.0743 29.3803 29.978C27.1993 30.8816 24.8608 31.3442 22.5 31.339ZM4.62939 16.1515L12.1725 23.6946C14.9148 26.4274 18.6285 27.9619 22.5 27.9619C26.3715 27.9619 30.0852 26.4274 32.8275 23.6946L40.3706 16.1515L32.8275 8.60836C30.0852 5.87553 26.3715 4.34104 22.5 4.34104C18.6285 4.34104 14.9148 5.87553 12.1725 8.60836L4.62939 16.1515Z" fill="#55FF00"/>
<path d="M22.5 22.9014C21.165 22.9014 19.8599 22.5055 18.7499 21.7638C17.6399 21.0221 16.7747 19.9679 16.2638 18.7345C15.7529 17.5011 15.6193 16.1439 15.8797 14.8345C16.1402 13.5251 16.783 12.3224 17.727 11.3784C18.671 10.4344 19.8738 9.79152 21.1831 9.53107C22.4925 9.27062 23.8497 9.40429 25.0831 9.91518C26.3165 10.4261 27.3707 11.2912 28.1124 12.4013C28.8541 13.5113 29.25 14.8163 29.25 16.1514C29.25 17.9416 28.5388 19.6585 27.273 20.9243C26.0071 22.1902 24.2902 22.9014 22.5 22.9014ZM22.5 12.7764C21.8325 12.7764 21.18 12.9743 20.625 13.3452C20.0699 13.716 19.6374 14.2431 19.3819 14.8598C19.1265 15.4765 19.0596 16.1551 19.1899 16.8098C19.3201 17.4645 19.6415 18.0659 20.1135 18.5379C20.5855 19.0099 21.1869 19.3313 21.8416 19.4615C22.4963 19.5917 23.1749 19.5249 23.7916 19.2695C24.4083 19.014 24.9354 18.5814 25.3062 18.0264C25.6771 17.4714 25.875 16.8189 25.875 16.1514C25.875 15.2563 25.5194 14.3978 24.8865 13.7649C24.2536 13.132 23.3951 12.7764 22.5 12.7764Z" fill="#55FF00"/>
</svg>
