<svg width="40" height="41" viewBox="0 0 40 41" fill="none" xmlns="http://www.w3.org/2000/svg">
<circle  class="socials-fill" cx="20" cy="20.1279" r="20" fill="#7E00CB"/>
<path fill-rule="evenodd" clip-rule="evenodd" d="M18.233 27.6476H19.538C19.538 27.6476 19.9324 27.6025 20.1341 27.3827C20.321 27.181 20.3121 26.8017 20.3121 26.8017C20.3121 26.8017 20.2854 25.0226 21.101 24.7607C21.9018 24.5018 22.9309 26.4796 24.0224 27.2412C24.8469 27.8162 25.4757 27.6898 25.4757 27.6898L28.3941 27.6476C28.3941 27.6476 29.9215 27.5513 29.1978 26.3351C29.1385 26.2358 28.7767 25.435 27.0298 23.7884C25.1998 22.0664 25.446 22.3434 27.6496 19.3632C28.9932 17.5479 29.527 16.4401 29.361 15.9645C29.2008 15.5129 28.2132 15.6333 28.2132 15.6333L24.927 15.6544C24.927 15.6544 24.6838 15.6213 24.5029 15.7297C24.3249 15.838 24.2122 16.0879 24.2122 16.0879C24.2122 16.0879 23.6932 17.4937 22.9992 18.6888C21.537 21.2115 20.9527 21.344 20.7125 21.1874C20.1549 20.8232 20.2943 19.7214 20.2943 18.9387C20.2943 16.4943 20.6591 15.4768 19.5825 15.2119C19.2266 15.1246 18.9626 15.0674 18.0491 15.0584C16.8776 15.0463 15.884 15.0614 15.3235 15.3413C14.9498 15.528 14.6621 15.9404 14.8371 15.9645C15.0536 15.9946 15.5459 16.0999 15.8069 16.4582C16.142 16.9218 16.1331 17.9664 16.1331 17.9664C16.1331 17.9664 16.3259 20.8412 15.6823 21.1995C15.2404 21.4433 14.6324 20.9436 13.3274 18.6557C12.6601 17.4847 12.1559 16.1902 12.1559 16.1902C12.1559 16.1902 12.058 15.9494 11.886 15.82C11.6754 15.6634 11.3818 15.6123 11.3818 15.6123L8.26171 15.6333C8.26171 15.6333 7.7931 15.6454 7.62108 15.8531C7.46685 16.0367 7.60921 16.419 7.60921 16.419C7.60921 16.419 10.0531 22.223 12.8203 25.146C15.3502 27.8252 18.233 27.6476 18.233 27.6476Z" fill="white"/>
</svg>
