<svg width="40" height="41" viewBox="0 0 40 41" fill="none" xmlns="http://www.w3.org/2000/svg">
    <g id="YouTube">
        <g id="YouTube_2">
            <rect class="socials-fill" id="Rectangle" y="0.12793" width="40" height="40" rx="20" fill="#7E00CB"/>
            <path id="Exclude" fill-rule="evenodd" clip-rule="evenodd"
                  d="M29.7816 11.9113C30.8525 12.1996 31.6968 13.0439 31.9851 14.1148C32.5205 16.0711 32.4999 20.1485 32.4999 20.1485C32.4999 20.1485 32.4999 24.2054 31.9851 26.1617C31.6968 27.2325 30.8525 28.0768 29.7816 28.3651C27.8253 28.88 19.9999 28.88 19.9999 28.88C19.9999 28.88 12.1952 28.88 10.2183 28.3445C9.14744 28.0562 8.30313 27.2119 8.01482 26.1411C7.5 24.2054 7.5 20.1279 7.5 20.1279C7.5 20.1279 7.5 16.0711 8.01482 14.1148C8.30313 13.0439 9.16803 12.179 10.2183 11.8907C12.1746 11.3759 19.9999 11.3759 19.9999 11.3759C19.9999 11.3759 27.8253 11.3759 29.7816 11.9113ZM24.0156 20.1279L17.5082 23.8759V16.38L24.0156 20.1279Z"
                  fill="white"/>
        </g>
    </g>
</svg>
